REM DIRINDEX 1\2\4\18,1\2\4\19,1\2\5\20,1\2\5\21,1\2\6\22,1\2\6\23,1\2\7\24,1\2\8\25,1\2\9\26,1\2\10\27,1\2\10\28,1\3\11\29,1\3\11\30,1\3\11\31,1\3\11\32,1\3\12\33,1\3\12\34,1\3\12\35,1\3\12\36,1\3\13\37,1\3\13\38,1\3\13\39,1\3\13\40,1\3\14\41,1\3\14\42,1\3\15\43,1\3\15\44,1\3\16\45,1\3\16\46,1\3\17\47,1\3\17\48,1\3\17\49,1\3\17\50
REM DIRNAME cjc135,folder01,folder02,folder03,folder04,folder05,folder06,folder07,folder08,folder09,folder10,folder11,folder12,folder13,folder14,folder15,folder16,folder17,folder18,folder19,folder20,folder21,folder22,folder23,folder24,folder25,folder26,folder27,folder28,folder29,folder30,folder31,folder32,folder33,folder34,folder35,folder36,folder37,folder38,folder39,folder40,folder41,folder42,folder43,folder44,folder45,folder46,folder47,folder48,folder49
TITLE ""
FILE "15.mp3" MP3
  TRACK 01 AUDIO
    TITLE "0:"
    INDEX 01 00:00:00
  TRACK 02 AUDIO
    TITLE "18:cjc135_2154"
    INDEX 01 00:00:15
  TRACK 03 AUDIO
    TITLE "0:"
    INDEX 01 00:01:42
  TRACK 04 AUDIO
    TITLE "19:cjc135_2155"
    INDEX 01 00:01:68
  TRACK 05 AUDIO
    TITLE "0:"
    INDEX 01 00:03:63
  TRACK 06 AUDIO
    TITLE "18:cjc135_2156"
    INDEX 01 00:04:62
  TRACK 07 AUDIO
    TITLE "0:"
    INDEX 01 00:06:14
  TRACK 08 AUDIO
    TITLE "19:cjc135_2157"
    INDEX 01 00:06:37
  TRACK 09 AUDIO
    TITLE "0:"
    INDEX 01 00:08:17
  TRACK 10 AUDIO
    TITLE "18:cjc135_2158"
    INDEX 01 00:09:18
  TRACK 11 AUDIO
    TITLE "0:"
    INDEX 01 00:10:59
  TRACK 12 AUDIO
    TITLE "19:cjc135_2159"
    INDEX 01 00:11:11
  TRACK 13 AUDIO
    TITLE "0:"
    INDEX 01 00:13:71
  TRACK 14 AUDIO
    TITLE "18:cjc135_2160"
    INDEX 01 00:14:70
  TRACK 15 AUDIO
    TITLE "0:"
    INDEX 01 00:16:04
  TRACK 16 AUDIO
    TITLE "19:cjc135_2161"
    INDEX 01 00:16:28
  TRACK 17 AUDIO
    TITLE "0:"
    INDEX 01 00:18:03
  TRACK 18 AUDIO
    TITLE "18:cjc135_2162"
    INDEX 01 00:19:07
  TRACK 19 AUDIO
    TITLE "0:"
    INDEX 01 00:20:18
  TRACK 20 AUDIO
    TITLE "19:cjc135_2163"
    INDEX 01 00:20:41
  TRACK 21 AUDIO
    TITLE "0:"
    INDEX 01 00:22:27
  TRACK 22 AUDIO
    TITLE "18:cjc135_2164"
    INDEX 01 00:23:28
  TRACK 23 AUDIO
    TITLE "0:"
    INDEX 01 00:24:47
  TRACK 24 AUDIO
    TITLE "19:cjc135_2165"
    INDEX 01 00:24:72
  TRACK 25 AUDIO
    TITLE "0:"
    INDEX 01 00:27:12
  TRACK 26 AUDIO
    TITLE "18:cjc135_2166"
    INDEX 01 00:28:10
  TRACK 27 AUDIO
    TITLE "0:"
    INDEX 01 00:29:33
  TRACK 28 AUDIO
    TITLE "19:cjc135_2167"
    INDEX 01 00:29:58
  TRACK 29 AUDIO
    TITLE "0:"
    INDEX 01 00:31:63
  TRACK 30 AUDIO
    TITLE "18:cjc135_2168"
    INDEX 01 00:32:62
  TRACK 31 AUDIO
    TITLE "0:"
    INDEX 01 00:34:06
  TRACK 32 AUDIO
    TITLE "19:cjc135_2169"
    INDEX 01 00:34:30
  TRACK 33 AUDIO
    TITLE "0:"
    INDEX 01 00:37:48
  TRACK 34 AUDIO
    TITLE "18:cjc135_2170"
    INDEX 01 00:38:45
  TRACK 35 AUDIO
    TITLE "0:"
    INDEX 01 00:39:60
  TRACK 36 AUDIO
    TITLE "19:cjc135_2171"
    INDEX 01 00:40:11
  TRACK 37 AUDIO
    TITLE "0:"
    INDEX 01 00:42:66
  TRACK 38 AUDIO
    TITLE "18:cjc135_2172"
    INDEX 01 00:43:68
  TRACK 39 AUDIO
    TITLE "0:"
    INDEX 01 00:45:10
  TRACK 40 AUDIO
    TITLE "19:cjc135_2173"
    INDEX 01 00:45:35
  TRACK 41 AUDIO
    TITLE "0:"
    INDEX 01 00:47:17
  TRACK 42 AUDIO
    TITLE "18:cjc135_2174"
    INDEX 01 00:48:14
  TRACK 43 AUDIO
    TITLE "0:"
    INDEX 01 00:49:45
  TRACK 44 AUDIO
    TITLE "19:cjc135_2175"
    INDEX 01 00:49:69
  TRACK 45 AUDIO
    TITLE "0:"
    INDEX 01 00:52:14
  TRACK 46 AUDIO
    TITLE "18:cjc135_2176"
    INDEX 01 00:53:11
  TRACK 47 AUDIO
    TITLE "0:"
    INDEX 01 00:54:17
  TRACK 48 AUDIO
    TITLE "19:cjc135_2177"
    INDEX 01 00:54:42
  TRACK 49 AUDIO
    TITLE "0:"
    INDEX 01 00:56:31
  TRACK 50 AUDIO
    TITLE "18:cjc135_2178"
    INDEX 01 00:57:31
  TRACK 51 AUDIO
    TITLE "0:"
    INDEX 01 00:58:24
  TRACK 52 AUDIO
    TITLE "19:cjc135_2179"
    INDEX 01 00:58:48
  TRACK 53 AUDIO
    TITLE "0:"
    INDEX 01 01:00:57
  TRACK 54 AUDIO
    TITLE "18:cjc135_2180"
    INDEX 01 01:01:58
  TRACK 55 AUDIO
    TITLE "0:"
    INDEX 01 01:02:63
  TRACK 56 AUDIO
    TITLE "19:cjc135_2181"
    INDEX 01 01:03:14
  TRACK 57 AUDIO
    TITLE "0:"
    INDEX 01 01:04:64
  TRACK 58 AUDIO
    TITLE "18:cjc135_2182"
    INDEX 01 01:05:66
  TRACK 59 AUDIO
    TITLE "0:"
    INDEX 01 01:06:63
  TRACK 60 AUDIO
    TITLE "19:cjc135_2183"
    INDEX 01 01:07:12
  TRACK 61 AUDIO
    TITLE "0:"
    INDEX 01 01:09:65
  TRACK 62 AUDIO
    TITLE "18:cjc135_2184"
    INDEX 01 01:10:65
  TRACK 63 AUDIO
    TITLE "0:"
    INDEX 01 01:11:64
  TRACK 64 AUDIO
    TITLE "19:cjc135_2185"
    INDEX 01 01:12:15
  TRACK 65 AUDIO
    TITLE "0:"
    INDEX 01 01:13:65
  TRACK 66 AUDIO
    TITLE "18:cjc135_2186"
    INDEX 01 01:14:66
  TRACK 67 AUDIO
    TITLE "0:"
    INDEX 01 01:16:24
  TRACK 68 AUDIO
    TITLE "19:cjc135_2187"
    INDEX 01 01:16:48
  TRACK 69 AUDIO
    TITLE "0:"
    INDEX 01 01:19:32
  TRACK 70 AUDIO
    TITLE "18:cjc135_2188"
    INDEX 01 01:20:32
  TRACK 71 AUDIO
    TITLE "0:"
    INDEX 01 01:21:49
  TRACK 72 AUDIO
    TITLE "19:cjc135_2189"
    INDEX 01 01:21:74
  TRACK 73 AUDIO
    TITLE "0:"
    INDEX 01 01:23:63
  TRACK 74 AUDIO
    TITLE "18:cjc135_2190"
    INDEX 01 01:24:63
  TRACK 75 AUDIO
    TITLE "0:"
    INDEX 01 01:25:68
  TRACK 76 AUDIO
    TITLE "19:cjc135_2191"
    INDEX 01 01:26:17
  TRACK 77 AUDIO
    TITLE "0:"
    INDEX 01 01:28:37
  TRACK 78 AUDIO
    TITLE "18:cjc135_2192"
    INDEX 01 01:29:37
  TRACK 79 AUDIO
    TITLE "0:"
    INDEX 01 01:31:02
  TRACK 80 AUDIO
    TITLE "19:cjc135_2193"
    INDEX 01 01:31:26
  TRACK 81 AUDIO
    TITLE "0:"
    INDEX 01 01:34:57
  TRACK 82 AUDIO
    TITLE "18:cjc135_2194"
    INDEX 01 01:35:57
  TRACK 83 AUDIO
    TITLE "0:"
    INDEX 01 01:37:05
  TRACK 84 AUDIO
    TITLE "19:cjc135_2195"
    INDEX 01 01:37:30
  TRACK 85 AUDIO
    TITLE "0:"
    INDEX 01 01:39:17
  TRACK 86 AUDIO
    TITLE "18:cjc135_2196"
    INDEX 01 01:40:19
  TRACK 87 AUDIO
    TITLE "0:"
    INDEX 01 01:41:42
  TRACK 88 AUDIO
    TITLE "19:cjc135_2197"
    INDEX 01 01:41:65
  TRACK 89 AUDIO
    TITLE "0:"
    INDEX 01 01:44:03
  TRACK 90 AUDIO
    TITLE "18:cjc135_2198"
    INDEX 01 01:45:02
  TRACK 91 AUDIO
    TITLE "0:"
    INDEX 01 01:46:19
  TRACK 92 AUDIO
    TITLE "19:cjc135_2199"
    INDEX 01 01:46:43
  TRACK 93 AUDIO
    TITLE "0:"
    INDEX 01 01:48:71
  TRACK 94 AUDIO
    TITLE "18:cjc135_2200"
    INDEX 01 01:49:73
  TRACK 95 AUDIO
    TITLE "0:"
    INDEX 01 01:51:17
  TRACK 96 AUDIO
    TITLE "19:cjc135_2201"
    INDEX 01 01:51:40
  TRACK 97 AUDIO
    TITLE "0:"
    INDEX 01 01:54:01
  TRACK 98 AUDIO
    TITLE "18:cjc135_2202"
    INDEX 01 01:54:74
  TRACK 99 AUDIO
    TITLE "0:"
    INDEX 01 01:56:20
  TRACK 100 AUDIO
    TITLE "19:cjc135_2203"
    INDEX 01 01:56:45
  TRACK 101 AUDIO
    TITLE "0:"
    INDEX 01 02:00:18
  TRACK 102 AUDIO
    TITLE "18:cjc135_2204"
    INDEX 01 02:01:19
  TRACK 103 AUDIO
    TITLE "0:"
    INDEX 01 02:02:32
  TRACK 104 AUDIO
    TITLE "19:cjc135_2205"
    INDEX 01 02:02:58
  TRACK 105 AUDIO
    TITLE "0:"
    INDEX 01 02:04:19
  TRACK 106 AUDIO
    TITLE "18:cjc135_2206"
    INDEX 01 02:05:19
  TRACK 107 AUDIO
    TITLE "0:"
    INDEX 01 02:06:34
  TRACK 108 AUDIO
    TITLE "19:cjc135_2207"
    INDEX 01 02:06:57
  TRACK 109 AUDIO
    TITLE "0:"
    INDEX 01 02:08:64
  TRACK 110 AUDIO
    TITLE "18:cjc135_2208"
    INDEX 01 02:09:66
  TRACK 111 AUDIO
    TITLE "0:"
    INDEX 01 02:11:08
  TRACK 112 AUDIO
    TITLE "19:cjc135_2209"
    INDEX 01 02:11:35
  TRACK 113 AUDIO
    TITLE "0:"
    INDEX 01 02:14:53
  TRACK 114 AUDIO
    TITLE "18:cjc135_2210"
    INDEX 01 02:15:52
  TRACK 115 AUDIO
    TITLE "0:"
    INDEX 01 02:16:73
  TRACK 116 AUDIO
    TITLE "19:cjc135_2211"
    INDEX 01 02:17:22
  TRACK 117 AUDIO
    TITLE "0:"
    INDEX 01 02:19:35
  TRACK 118 AUDIO
    TITLE "18:cjc135_2212"
    INDEX 01 02:20:38
  TRACK 119 AUDIO
    TITLE "0:"
    INDEX 01 02:21:71
  TRACK 120 AUDIO
    TITLE "19:cjc135_2213"
    INDEX 01 02:22:19
  TRACK 121 AUDIO
    TITLE "0:"
    INDEX 01 02:24:69
  TRACK 122 AUDIO
    TITLE "18:cjc135_2214"
    INDEX 01 02:25:67
  TRACK 123 AUDIO
    TITLE "0:"
    INDEX 01 02:27:13
  TRACK 124 AUDIO
    TITLE "19:cjc135_2215"
    INDEX 01 02:27:38
  TRACK 125 AUDIO
    TITLE "0:"
    INDEX 01 02:29:35
  TRACK 126 AUDIO
    TITLE "18:cjc135_2216"
    INDEX 01 02:30:32
  TRACK 127 AUDIO
    TITLE "0:"
    INDEX 01 02:31:48
  TRACK 128 AUDIO
    TITLE "19:cjc135_2217"
    INDEX 01 02:32:02
  TRACK 129 AUDIO
    TITLE "0:"
    INDEX 01 02:34:56
  TRACK 130 AUDIO
    TITLE "18:cjc135_2218"
    INDEX 01 02:35:55
  TRACK 131 AUDIO
    TITLE "0:"
    INDEX 01 02:36:64
  TRACK 132 AUDIO
    TITLE "19:cjc135_2219"
    INDEX 01 02:37:15
  TRACK 133 AUDIO
    TITLE "0:"
    INDEX 01 02:38:61
  TRACK 134 AUDIO
    TITLE "18:cjc135_2220"
    INDEX 01 02:39:63
  TRACK 135 AUDIO
    TITLE "0:"
    INDEX 01 02:40:72
  TRACK 136 AUDIO
    TITLE "19:cjc135_2221"
    INDEX 01 02:41:22
  TRACK 137 AUDIO
    TITLE "0:"
    INDEX 01 02:43:57
  TRACK 138 AUDIO
    TITLE "18:cjc135_2222"
    INDEX 01 02:44:58
  TRACK 139 AUDIO
    TITLE "0:"
    INDEX 01 02:45:71
  TRACK 140 AUDIO
    TITLE "19:cjc135_2223"
    INDEX 01 02:46:22
  TRACK 141 AUDIO
    TITLE "0:"
    INDEX 01 02:48:50
  TRACK 142 AUDIO
    TITLE "18:cjc135_2224"
    INDEX 01 02:49:49
  TRACK 143 AUDIO
    TITLE "0:"
    INDEX 01 02:50:66
  TRACK 144 AUDIO
    TITLE "19:cjc135_2225"
    INDEX 01 02:51:23
  TRACK 145 AUDIO
    TITLE "0:"
    INDEX 01 02:53:04
  TRACK 146 AUDIO
    TITLE "18:cjc135_2226"
    INDEX 01 02:54:06
  TRACK 147 AUDIO
    TITLE "0:"
    INDEX 01 02:55:17
  TRACK 148 AUDIO
    TITLE "19:cjc135_2227"
    INDEX 01 02:55:40
  TRACK 149 AUDIO
    TITLE "0:"
    INDEX 01 02:58:01
  TRACK 150 AUDIO
    TITLE "18:cjc135_2228"
    INDEX 01 02:58:74
  TRACK 151 AUDIO
    TITLE "0:"
    INDEX 01 03:00:32
  TRACK 152 AUDIO
    TITLE "19:cjc135_2229"
    INDEX 01 03:00:59
  TRACK 153 AUDIO
    TITLE "0:"
    INDEX 01 03:02:64
  TRACK 154 AUDIO
    TITLE "18:cjc135_2230"
    INDEX 01 03:03:65
  TRACK 155 AUDIO
    TITLE "0:"
    INDEX 01 03:05:15
  TRACK 156 AUDIO
    TITLE "19:cjc135_2231"
    INDEX 01 03:05:43
  TRACK 157 AUDIO
    TITLE "0:"
    INDEX 01 03:07:41
  TRACK 158 AUDIO
    TITLE "18:cjc135_2232"
    INDEX 01 03:08:43
  TRACK 159 AUDIO
    TITLE "0:"
    INDEX 01 03:10:01
  TRACK 160 AUDIO
    TITLE "19:cjc135_2233"
    INDEX 01 03:10:26
  TRACK 161 AUDIO
    TITLE "0:"
    INDEX 01 03:12:58
  TRACK 162 AUDIO
    TITLE "18:cjc135_2234"
    INDEX 01 03:13:58
  TRACK 163 AUDIO
    TITLE "0:"
    INDEX 01 03:14:67
  TRACK 164 AUDIO
    TITLE "19:cjc135_2235"
    INDEX 01 03:15:17
  TRACK 165 AUDIO
    TITLE "0:"
    INDEX 01 03:17:09
  TRACK 166 AUDIO
    TITLE "18:cjc135_2236"
    INDEX 01 03:18:08
  TRACK 167 AUDIO
    TITLE "0:"
    INDEX 01 03:19:29
  TRACK 168 AUDIO
    TITLE "19:cjc135_2237"
    INDEX 01 03:19:52
  TRACK 169 AUDIO
    TITLE "0:"
    INDEX 01 03:22:27
  TRACK 170 AUDIO
    TITLE "18:cjc135_2238"
    INDEX 01 03:23:25
  TRACK 171 AUDIO
    TITLE "0:"
    INDEX 01 03:24:54
  TRACK 172 AUDIO
    TITLE "19:cjc135_2239"
    INDEX 01 03:25:02
  TRACK 173 AUDIO
    TITLE "0:"
    INDEX 01 03:27:44
  TRACK 174 AUDIO
    TITLE "18:cjc135_2240"
    INDEX 01 03:28:42
  TRACK 175 AUDIO
    TITLE "0:"
    INDEX 01 03:29:65
  TRACK 176 AUDIO
    TITLE "19:cjc135_2241"
    INDEX 01 03:30:15
  TRACK 177 AUDIO
    TITLE "0:"
    INDEX 01 03:32:32
  TRACK 178 AUDIO
    TITLE "18:cjc135_2242"
    INDEX 01 03:33:33
  TRACK 179 AUDIO
    TITLE "0:"
    INDEX 01 03:34:52
  TRACK 180 AUDIO
    TITLE "19:cjc135_2243"
    INDEX 01 03:35:04
  TRACK 181 AUDIO
    TITLE "0:"
    INDEX 01 03:36:61
  TRACK 182 AUDIO
    TITLE "18:cjc135_2244"
    INDEX 01 03:37:60
  TRACK 183 AUDIO
    TITLE "0:"
    INDEX 01 03:38:71
  TRACK 184 AUDIO
    TITLE "19:cjc135_2245"
    INDEX 01 03:39:20
  TRACK 185 AUDIO
    TITLE "0:"
    INDEX 01 03:41:27
  TRACK 186 AUDIO
    TITLE "18:cjc135_2246"
    INDEX 01 03:42:28
  TRACK 187 AUDIO
    TITLE "0:"
    INDEX 01 03:43:57
  TRACK 188 AUDIO
    TITLE "19:cjc135_2247"
    INDEX 01 03:44:07
  TRACK 189 AUDIO
    TITLE "0:"
    INDEX 01 03:46:12
  TRACK 190 AUDIO
    TITLE "18:cjc135_2248"
    INDEX 01 03:47:12
  TRACK 191 AUDIO
    TITLE "0:"
    INDEX 01 03:48:31
  TRACK 192 AUDIO
    TITLE "19:cjc135_2249"
    INDEX 01 03:48:54
  TRACK 193 AUDIO
    TITLE "0:"
    INDEX 01 03:50:61
  TRACK 194 AUDIO
    TITLE "18:cjc135_2250"
    INDEX 01 03:51:62
  TRACK 195 AUDIO
    TITLE "0:"
    INDEX 01 03:52:73
  TRACK 196 AUDIO
    TITLE "19:cjc135_2251"
    INDEX 01 03:53:22
  TRACK 197 AUDIO
    TITLE "0:"
    INDEX 01 03:55:29
  TRACK 198 AUDIO
    TITLE "18:cjc135_2252"
    INDEX 01 03:56:26
  TRACK 199 AUDIO
    TITLE "0:"
    INDEX 01 03:57:41
  TRACK 200 AUDIO
    TITLE "19:cjc135_2253"
    INDEX 01 03:57:65
  TRACK 201 AUDIO
    TITLE "0:"
    INDEX 01 04:00:30
  TRACK 202 AUDIO
    TITLE "18:cjc135_2254"
    INDEX 01 04:01:31
  TRACK 203 AUDIO
    TITLE "0:"
    INDEX 01 04:02:39
  TRACK 204 AUDIO
    TITLE "19:cjc135_2255"
    INDEX 01 04:02:68
  TRACK 205 AUDIO
    TITLE "0:"
    INDEX 01 04:04:32
  TRACK 206 AUDIO
    TITLE "18:cjc135_2256"
    INDEX 01 04:05:31
  TRACK 207 AUDIO
    TITLE "0:"
    INDEX 01 04:06:32
  TRACK 208 AUDIO
    TITLE "19:cjc135_2257"
    INDEX 01 04:06:58
  TRACK 209 AUDIO
    TITLE "0:"
    INDEX 01 04:08:16
  TRACK 210 AUDIO
    TITLE "18:cjc135_2258"
    INDEX 01 04:09:15
  TRACK 211 AUDIO
    TITLE "0:"
    INDEX 01 04:10:18
  TRACK 212 AUDIO
    TITLE "19:cjc135_2259"
    INDEX 01 04:10:42
  TRACK 213 AUDIO
    TITLE "0:"
    INDEX 01 04:13:34
  TRACK 214 AUDIO
    TITLE "18:cjc135_2260"
    INDEX 01 04:14:32
  TRACK 215 AUDIO
    TITLE "0:"
    INDEX 01 04:15:24
  TRACK 216 AUDIO
    TITLE "19:cjc135_2261"
    INDEX 01 04:15:53
  TRACK 217 AUDIO
    TITLE "0:"
    INDEX 01 04:17:56
  TRACK 218 AUDIO
    TITLE "18:cjc135_2262"
    INDEX 01 04:18:57
  TRACK 219 AUDIO
    TITLE "0:"
    INDEX 01 04:20:23
  TRACK 220 AUDIO
    TITLE "19:cjc135_2263"
    INDEX 01 04:20:46
  TRACK 221 AUDIO
    TITLE "0:"
    INDEX 01 04:23:17
  TRACK 222 AUDIO
    TITLE "18:cjc135_2264"
    INDEX 01 04:24:15
  TRACK 223 AUDIO
    TITLE "0:"
    INDEX 01 04:25:34
  TRACK 224 AUDIO
    TITLE "19:cjc135_2265"
    INDEX 01 04:25:59
  TRACK 225 AUDIO
    TITLE "0:"
    INDEX 01 04:27:50
  TRACK 226 AUDIO
    TITLE "18:cjc135_2266"
    INDEX 01 04:28:50
  TRACK 227 AUDIO
    TITLE "0:"
    INDEX 01 04:29:53
  TRACK 228 AUDIO
    TITLE "19:cjc135_2267"
    INDEX 01 04:30:02
  TRACK 229 AUDIO
    TITLE "0:"
    INDEX 01 04:31:42
  TRACK 230 AUDIO
    TITLE "18:cjc135_2268"
    INDEX 01 04:32:42
  TRACK 231 AUDIO
    TITLE "0:"
    INDEX 01 04:33:61
  TRACK 232 AUDIO
    TITLE "19:cjc135_2269"
    INDEX 01 04:34:09
  TRACK 233 AUDIO
    TITLE "0:"
    INDEX 01 04:36:37
  TRACK 234 AUDIO
    TITLE "18:cjc135_2270"
    INDEX 01 04:37:39
  TRACK 235 AUDIO
    TITLE "0:"
    INDEX 01 04:38:50
  TRACK 236 AUDIO
    TITLE "19:cjc135_2271"
    INDEX 01 04:38:72
  TRACK 237 AUDIO
    TITLE "0:"
    INDEX 01 04:41:09
  TRACK 238 AUDIO
    TITLE "18:cjc135_2272"
    INDEX 01 04:42:07
  TRACK 239 AUDIO
    TITLE "0:"
    INDEX 01 04:43:26
  TRACK 240 AUDIO
    TITLE "19:cjc135_2273"
    INDEX 01 04:43:49
  TRACK 241 AUDIO
    TITLE "0:"
    INDEX 01 04:45:42
  TRACK 242 AUDIO
    TITLE "18:cjc135_2274"
    INDEX 01 04:46:42
  TRACK 243 AUDIO
    TITLE "0:"
    INDEX 01 04:48:05
  TRACK 244 AUDIO
    TITLE "19:cjc135_2275"
    INDEX 01 04:48:33
  TRACK 245 AUDIO
    TITLE "0:"
    INDEX 01 04:50:36
  TRACK 246 AUDIO
    TITLE "18:cjc135_2276"
    INDEX 01 04:51:35
  TRACK 247 AUDIO
    TITLE "0:"
    INDEX 01 04:52:36
  TRACK 248 AUDIO
    TITLE "19:cjc135_2277"
    INDEX 01 04:52:60
  TRACK 249 AUDIO
    TITLE "0:"
    INDEX 01 04:54:37
  TRACK 250 AUDIO
    TITLE "18:cjc135_2278"
    INDEX 01 04:55:37
  TRACK 251 AUDIO
    TITLE "0:"
    INDEX 01 04:56:60
  TRACK 252 AUDIO
    TITLE "19:cjc135_2279"
    INDEX 01 04:57:10
  TRACK 253 AUDIO
    TITLE "0:"
    INDEX 01 04:59:33
  TRACK 254 AUDIO
    TITLE "18:cjc135_2280"
    INDEX 01 05:00:34
  TRACK 255 AUDIO
    TITLE "0:"
    INDEX 01 05:01:63
  TRACK 256 AUDIO
    TITLE "19:cjc135_2281"
    INDEX 01 05:02:11
  TRACK 257 AUDIO
    TITLE "0:"
    INDEX 01 05:05:08
  TRACK 258 AUDIO
    TITLE "18:cjc135_2282"
    INDEX 01 05:06:07
  TRACK 259 AUDIO
    TITLE "0:"
    INDEX 01 05:07:30
  TRACK 260 AUDIO
    TITLE "19:cjc135_2283"
    INDEX 01 05:07:58
  TRACK 261 AUDIO
    TITLE "0:"
    INDEX 01 05:09:53
  TRACK 262 AUDIO
    TITLE "18:cjc135_2284"
    INDEX 01 05:10:52
  TRACK 263 AUDIO
    TITLE "0:"
    INDEX 01 05:11:63
  TRACK 264 AUDIO
    TITLE "19:cjc135_2285"
    INDEX 01 05:12:12
  TRACK 265 AUDIO
    TITLE "0:"
    INDEX 01 05:14:22
  TRACK 266 AUDIO
    TITLE "18:cjc135_2286"
    INDEX 01 05:15:22
  TRACK 267 AUDIO
    TITLE "0:"
    INDEX 01 05:16:41
  TRACK 268 AUDIO
    TITLE "19:cjc135_2287"
    INDEX 01 05:16:64
  TRACK 269 AUDIO
    TITLE "0:"
    INDEX 01 05:18:55
  TRACK 270 AUDIO
    TITLE "18:cjc135_2288"
    INDEX 01 05:19:57
  TRACK 271 AUDIO
    TITLE "0:"
    INDEX 01 05:21:03
  TRACK 272 AUDIO
    TITLE "19:cjc135_2289"
    INDEX 01 05:21:26
  TRACK 273 AUDIO
    TITLE "0:"
    INDEX 01 05:24:29
  TRACK 274 AUDIO
    TITLE "18:cjc135_2290"
    INDEX 01 05:25:28
  TRACK 275 AUDIO
    TITLE "0:"
    INDEX 01 05:26:51
  TRACK 276 AUDIO
    TITLE "19:cjc135_2291"
    INDEX 01 05:27:02
  TRACK 277 AUDIO
    TITLE "0:"
    INDEX 01 05:29:10
  TRACK 278 AUDIO
    TITLE "18:cjc135_2292"
    INDEX 01 05:30:10
  TRACK 279 AUDIO
    TITLE "0:"
    INDEX 01 05:31:23
  TRACK 280 AUDIO
    TITLE "19:cjc135_2293"
    INDEX 01 05:31:50
  TRACK 281 AUDIO
    TITLE "0:"
    INDEX 01 05:33:28
  TRACK 282 AUDIO
    TITLE "18:cjc135_2294"
    INDEX 01 05:34:29
  TRACK 283 AUDIO
    TITLE "0:"
    INDEX 01 05:35:64
  TRACK 284 AUDIO
    TITLE "19:cjc135_2295"
    INDEX 01 05:36:12
  TRACK 285 AUDIO
    TITLE "0:"
    INDEX 01 05:39:16
  TRACK 286 AUDIO
    TITLE "18:cjc135_2296"
    INDEX 01 05:40:14
  TRACK 287 AUDIO
    TITLE "0:"
    INDEX 01 05:41:27
  TRACK 288 AUDIO
    TITLE "19:cjc135_2297"
    INDEX 01 05:41:57
  TRACK 289 AUDIO
    TITLE "0:"
    INDEX 01 05:44:10
  TRACK 290 AUDIO
    TITLE "18:cjc135_2298"
    INDEX 01 05:45:09
  TRACK 291 AUDIO
    TITLE "0:"
    INDEX 01 05:46:22
  TRACK 292 AUDIO
    TITLE "19:cjc135_2299"
    INDEX 01 05:46:48
  TRACK 293 AUDIO
    TITLE "0:"
    INDEX 01 05:50:01
  TRACK 294 AUDIO
    TITLE "18:cjc135_2300"
    INDEX 01 05:51:04
  TRACK 295 AUDIO
    TITLE "0:"
    INDEX 01 05:52:03
  TRACK 296 AUDIO
    TITLE "19:cjc135_2301"
    INDEX 01 05:52:29
  TRACK 297 AUDIO
    TITLE "0:"
    INDEX 01 05:54:42
  TRACK 298 AUDIO
    TITLE "18:cjc135_2302"
    INDEX 01 05:55:43
  TRACK 299 AUDIO
    TITLE "0:"
    INDEX 01 05:56:46
  TRACK 300 AUDIO
    TITLE "19:cjc135_2303"
    INDEX 01 05:56:70
  TRACK 301 AUDIO
    TITLE "0:"
    INDEX 01 05:59:29
  TRACK 302 AUDIO
    TITLE "18:cjc135_2304"
    INDEX 01 06:00:30
  TRACK 303 AUDIO
    TITLE "0:"
    INDEX 01 06:01:49
  TRACK 304 AUDIO
    TITLE "19:cjc135_2305"
    INDEX 01 06:01:73
  TRACK 305 AUDIO
    TITLE "0:"
    INDEX 01 06:04:14
  TRACK 306 AUDIO
    TITLE "18:cjc135_2306"
    INDEX 01 06:05:14
  TRACK 307 AUDIO
    TITLE "0:"
    INDEX 01 06:06:25
  TRACK 308 AUDIO
    TITLE "19:cjc135_2307"
    INDEX 01 06:06:51
  TRACK 309 AUDIO
    TITLE "0:"
    INDEX 01 06:08:67
  TRACK 310 AUDIO
    TITLE "18:cjc135_2308"
    INDEX 01 06:09:67
  TRACK 311 AUDIO
    TITLE "0:"
    INDEX 01 06:11:11
  TRACK 312 AUDIO
    TITLE "19:cjc135_2309"
    INDEX 01 06:11:34
  TRACK 313 AUDIO
    TITLE "0:"
    INDEX 01 06:14:07
  TRACK 314 AUDIO
    TITLE "18:cjc135_2310"
    INDEX 01 06:15:06
  TRACK 315 AUDIO
    TITLE "0:"
    INDEX 01 06:16:18
  TRACK 316 AUDIO
    TITLE "19:cjc135_2311"
    INDEX 01 06:16:43
  TRACK 317 AUDIO
    TITLE "0:"
    INDEX 01 06:18:40
  TRACK 318 AUDIO
    TITLE "18:cjc135_2312"
    INDEX 01 06:19:41
  TRACK 319 AUDIO
    TITLE "0:"
    INDEX 01 06:20:51
  TRACK 320 AUDIO
    TITLE "19:cjc135_2313"
    INDEX 01 06:20:74
  TRACK 321 AUDIO
    TITLE "0:"
    INDEX 01 06:22:30
  TRACK 322 AUDIO
    TITLE "18:cjc135_2314"
    INDEX 01 06:23:29
  TRACK 323 AUDIO
    TITLE "0:"
    INDEX 01 06:24:58
  TRACK 324 AUDIO
    TITLE "19:cjc135_2315"
    INDEX 01 06:25:07
  TRACK 325 AUDIO
    TITLE "0:"
    INDEX 01 06:27:19
  TRACK 326 AUDIO
    TITLE "18:cjc135_2316"
    INDEX 01 06:28:19
  TRACK 327 AUDIO
    TITLE "0:"
    INDEX 01 06:29:34
  TRACK 328 AUDIO
    TITLE "19:cjc135_2317"
    INDEX 01 06:29:59
  TRACK 329 AUDIO
    TITLE "0:"
    INDEX 01 06:32:42
  TRACK 330 AUDIO
    TITLE "18:cjc135_2318"
    INDEX 01 06:33:40
  TRACK 331 AUDIO
    TITLE "0:"
    INDEX 01 06:34:47
  TRACK 332 AUDIO
    TITLE "19:cjc135_2319"
    INDEX 01 06:34:72
  TRACK 333 AUDIO
    TITLE "0:"
    INDEX 01 06:36:46
  TRACK 334 AUDIO
    TITLE "18:cjc135_2320"
    INDEX 01 06:37:45
  TRACK 335 AUDIO
    TITLE "0:"
    INDEX 01 06:38:74
  TRACK 336 AUDIO
    TITLE "19:cjc135_2321"
    INDEX 01 06:39:25
  TRACK 337 AUDIO
    TITLE "0:"
    INDEX 01 06:41:00
  TRACK 338 AUDIO
    TITLE "18:cjc135_2322"
    INDEX 01 06:41:72
  TRACK 339 AUDIO
    TITLE "0:"
    INDEX 01 06:43:40
  TRACK 340 AUDIO
    TITLE "19:cjc135_2323"
    INDEX 01 06:43:65
  TRACK 341 AUDIO
    TITLE "0:"
    INDEX 01 06:46:52
  TRACK 342 AUDIO
    TITLE "18:cjc135_2324"
    INDEX 01 06:47:51
  TRACK 343 AUDIO
    TITLE "0:"
    INDEX 01 06:49:05
  TRACK 344 AUDIO
    TITLE "19:cjc135_2325"
    INDEX 01 06:49:29
  TRACK 345 AUDIO
    TITLE "0:"
    INDEX 01 06:52:04
  TRACK 346 AUDIO
    TITLE "18:cjc135_2326"
    INDEX 01 06:53:03
  TRACK 347 AUDIO
    TITLE "0:"
    INDEX 01 06:54:16
  TRACK 348 AUDIO
    TITLE "19:cjc135_2327"
    INDEX 01 06:54:42
  TRACK 349 AUDIO
    TITLE "0:"
    INDEX 01 06:56:25
  TRACK 350 AUDIO
    TITLE "18:cjc135_2328"
    INDEX 01 06:57:24
  TRACK 351 AUDIO
    TITLE "0:"
    INDEX 01 06:58:34
  TRACK 352 AUDIO
    TITLE "19:cjc135_2329"
    INDEX 01 06:58:59
  TRACK 353 AUDIO
    TITLE "0:"
    INDEX 01 07:00:46
  TRACK 354 AUDIO
    TITLE "18:cjc135_2330"
    INDEX 01 07:01:48
  TRACK 355 AUDIO
    TITLE "0:"
    INDEX 01 07:02:69
  TRACK 356 AUDIO
    TITLE "19:cjc135_2331"
    INDEX 01 07:03:15
  TRACK 357 AUDIO
    TITLE "0:"
    INDEX 01 07:05:02
  TRACK 358 AUDIO
    TITLE "18:cjc135_2332"
    INDEX 01 07:06:02
  TRACK 359 AUDIO
    TITLE "0:"
    INDEX 01 07:07:21
  TRACK 360 AUDIO
    TITLE "19:cjc135_2333"
    INDEX 01 07:07:44
  TRACK 361 AUDIO
    TITLE "0:"
    INDEX 01 07:09:37
  TRACK 362 AUDIO
    TITLE "18:cjc135_2334"
    INDEX 01 07:10:37
  TRACK 363 AUDIO
    TITLE "0:"
    INDEX 01 07:11:42
  TRACK 364 AUDIO
    TITLE "19:cjc135_2335"
    INDEX 01 07:11:70
  TRACK 365 AUDIO
    TITLE "0:"
    INDEX 01 07:13:55
  TRACK 366 AUDIO
    TITLE "18:cjc135_2336"
    INDEX 01 07:14:54
  TRACK 367 AUDIO
    TITLE "0:"
    INDEX 01 07:16:00
  TRACK 368 AUDIO
    TITLE "19:cjc135_2337"
    INDEX 01 07:16:24
  TRACK 369 AUDIO
    TITLE "0:"
    INDEX 01 07:18:38
  TRACK 370 AUDIO
    TITLE "18:cjc135_2338"
    INDEX 01 07:19:38
  TRACK 371 AUDIO
    TITLE "0:"
    INDEX 01 07:20:41
  TRACK 372 AUDIO
    TITLE "19:cjc135_2339"
    INDEX 01 07:20:67
  TRACK 373 AUDIO
    TITLE "0:"
    INDEX 01 07:23:04
  TRACK 374 AUDIO
    TITLE "18:cjc135_2340"
    INDEX 01 07:24:04
  TRACK 375 AUDIO
    TITLE "0:"
    INDEX 01 07:25:25
  TRACK 376 AUDIO
    TITLE "19:cjc135_2341"
    INDEX 01 07:25:50
  TRACK 377 AUDIO
    TITLE "0:"
    INDEX 01 07:27:53
  TRACK 378 AUDIO
    TITLE "18:cjc135_2342"
    INDEX 01 07:28:52
  TRACK 379 AUDIO
    TITLE "0:"
    INDEX 01 07:29:58
  TRACK 380 AUDIO
    TITLE "19:cjc135_2343"
    INDEX 01 07:30:04
  TRACK 381 AUDIO
    TITLE "0:"
    INDEX 01 07:32:29
  TRACK 382 AUDIO
    TITLE "18:cjc135_2344"
    INDEX 01 07:33:28
  TRACK 383 AUDIO
    TITLE "0:"
    INDEX 01 07:34:51
  TRACK 384 AUDIO
    TITLE "19:cjc135_2345"
    INDEX 01 07:35:05
  TRACK 385 AUDIO
    TITLE "0:"
    INDEX 01 07:36:64
  TRACK 386 AUDIO
    TITLE "18:cjc135_2346"
    INDEX 01 07:37:63
  TRACK 387 AUDIO
    TITLE "0:"
    INDEX 01 07:38:66
  TRACK 388 AUDIO
    TITLE "19:cjc135_2347"
    INDEX 01 07:39:15
  TRACK 389 AUDIO
    TITLE "0:"
    INDEX 01 07:41:24
  TRACK 390 AUDIO
    TITLE "18:cjc135_2348"
    INDEX 01 07:42:21
  TRACK 391 AUDIO
    TITLE "0:"
    INDEX 01 07:43:60
  TRACK 392 AUDIO
    TITLE "19:cjc135_2349"
    INDEX 01 07:44:10
  TRACK 393 AUDIO
    TITLE "0:"
    INDEX 01 07:46:19
  TRACK 394 AUDIO
    TITLE "18:cjc135_2350"
    INDEX 01 07:47:15
  TRACK 395 AUDIO
    TITLE "0:"
    INDEX 01 07:48:32
  TRACK 396 AUDIO
    TITLE "19:cjc135_2351"
    INDEX 01 07:48:57
  TRACK 397 AUDIO
    TITLE "0:"
    INDEX 01 07:50:42
  TRACK 398 AUDIO
    TITLE "18:cjc135_2352"
    INDEX 01 07:51:40
  TRACK 399 AUDIO
    TITLE "0:"
    INDEX 01 07:52:45
  TRACK 400 AUDIO
    TITLE "19:cjc135_2353"
    INDEX 01 07:52:71
  TRACK 401 AUDIO
    TITLE "0:"
    INDEX 01 07:55:67
